<?xml version="1.0" encoding="UTF-8"?>
<svg width="200" height="200" viewBox="0 0 200 200" xmlns="http://www.w3.org/2000/svg">
  <title>Corn</title>
  <g fill="none" fill-rule="evenodd">
    <circle cx="100" cy="100" r="80" fill="#fffde7" />
    <g transform="translate(80, 20)">
      <path d="M40,15 L40,130" stroke="#4CAF50" stroke-width="5" />
      
      <!-- Corn leaves -->
      <path d="M40,15 C10,10 0,30 10,40" stroke="#4CAF50" stroke-width="3" stroke-linecap="round" fill="none" />
      <path d="M40,25 C0,30 -5,50 10,60" stroke="#4CAF50" stroke-width="3" stroke-linecap="round" fill="none" />
      <path d="M40,40 C10,50 5,70 20,80" stroke="#4CAF50" stroke-width="3" stroke-linecap="round" fill="none" />
      
      <!-- Corn body -->
      <ellipse cx="40" cy="85" rx="18" ry="45" fill="#FFC107" />
      
      <!-- Corn kernels (grid pattern) -->
      <g stroke="#FFE082" stroke-width="0.5">
        <path d="M25,45 L55,45" stroke-linecap="round" />
        <path d="M25,50 L55,50" stroke-linecap="round" />
        <path d="M25,55 L55,55" stroke-linecap="round" />
        <path d="M25,60 L55,60" stroke-linecap="round" />
        <path d="M25,65 L55,65" stroke-linecap="round" />
        <path d="M25,70 L55,70" stroke-linecap="round" />
        <path d="M25,75 L55,75" stroke-linecap="round" />
        <path d="M25,80 L55,80" stroke-linecap="round" />
        <path d="M25,85 L55,85" stroke-linecap="round" />
        <path d="M25,90 L55,90" stroke-linecap="round" />
        <path d="M25,95 L55,95" stroke-linecap="round" />
        <path d="M25,100 L55,100" stroke-linecap="round" />
        <path d="M25,105 L55,105" stroke-linecap="round" />
        <path d="M25,110 L55,110" stroke-linecap="round" />
        <path d="M25,115 L55,115" stroke-linecap="round" />
        <path d="M25,120 L55,120" stroke-linecap="round" />
        <path d="M25,125 L55,125" stroke-linecap="round" />
        
        <path d="M30,40 L30,130" stroke-linecap="round" />
        <path d="M35,40 L35,130" stroke-linecap="round" />
        <path d="M40,40 L40,130" stroke-linecap="round" />
        <path d="M45,40 L45,130" stroke-linecap="round" />
        <path d="M50,40 L50,130" stroke-linecap="round" />
      </g>
    </g>
    <text x="100" y="160" font-family="Arial" font-size="16" fill="#333" text-anchor="middle">Corn</text>
  </g>
</svg>