<?xml version="1.0" encoding="UTF-8"?>
<svg width="200" height="200" viewBox="0 0 200 200" xmlns="http://www.w3.org/2000/svg">
  <title>Eggplant</title>
  <g fill="none" fill-rule="evenodd">
    <circle cx="100" cy="100" r="80" fill="#f3e5f5" />
    <g transform="translate(70, 30)">
      <!-- Eggplant body -->
      <path d="M30,40 C10,60 10,100 30,130 C50,160 80,130 60,100 C45,70 50,40 30,40 Z" fill="#5E35B1" />
      
      <!-- Eggplant highlights -->
      <path d="M30,50 C40,70 40,100 30,120" stroke="#7E57C2" stroke-width="2" stroke-linecap="round" />
      <path d="M45,60 C55,80 55,110 45,130" stroke="#7E57C2" stroke-width="2" stroke-linecap="round" />
      
      <!-- Stem and leaves -->
      <path d="M30,40 C30,30 30,20 30,10" stroke="#4CAF50" stroke-width="3" stroke-linecap="round" />
      <path d="M30,15 C10,5 5,15 10,20" stroke="#4CAF50" stroke-width="2" stroke-linecap="round" />
      <path d="M30,20 C50,5 55,15 50,25" stroke="#4CAF50" stroke-width="2" stroke-linecap="round" />
      <path d="M30,30 C15,25 10,35 20,40" stroke="#4CAF50" stroke-width="2" stroke-linecap="round" />
      
      <!-- Top detail -->
      <path d="M30,40 C35,35 25,35 30,40 Z" fill="#8E24AA" />
    </g>
    <text x="100" y="160" font-family="Arial" font-size="16" fill="#333" text-anchor="middle">Eggplant</text>
  </g>
</svg>